<?xml version="1.0" encoding="UTF-8"?><svg id="Layer_1" xmlns="http://www.w3.org/2000/svg" viewBox="0 0 243.37 300"><defs><style>.cls-1{fill:#e5d8ce;}</style></defs><path class="cls-1" d="M212.07,292.09H29.67c-12.53,0-22.72-10.19-22.72-22.72V86.97c0-12.53,10.19-22.72,22.72-22.72H212.07c12.53,0,22.72,10.19,22.72,22.72v182.4c0,12.53-10.19,22.72-22.72,22.72ZM29.67,71.25c-8.67,0-15.72,7.05-15.72,15.72v182.4c0,8.67,7.05,15.72,15.72,15.72H212.07c8.67,0,15.72-7.05,15.72-15.72V86.97c0-8.67-7.05-15.72-15.72-15.72H29.67Z"/></svg>