<?xml version="1.0" encoding="UTF-8"?><svg id="Layer_1" xmlns="http://www.w3.org/2000/svg" viewBox="0 0 243.37 300"><defs><style>.cls-1{fill:#e5d8ce;}.cls-2{fill:#3f3935;}</style></defs><path class="cls-1" d="M212.07,292.09H29.67c-12.53,0-22.72-10.19-22.72-22.72V86.97c0-12.53,10.19-22.72,22.72-22.72H212.07c12.53,0,22.72,10.19,22.72,22.72v182.4c0,12.53-10.19,22.72-22.72,22.72ZM29.67,71.25c-8.67,0-15.72,7.05-15.72,15.72v182.4c0,8.67,7.05,15.72,15.72,15.72H212.07c8.67,0,15.72-7.05,15.72-15.72V86.97c0-8.67-7.05-15.72-15.72-15.72H29.67Z"/><path class="cls-2" d="M111.87,268.4c-4.93-.02-10.7-4.95-11.97-10.86-2.63-12.26-4.82-24.61-7.48-36.86-1.29-5.94-2.64-11.99-4.97-17.57-8.01-19.16-17.47-37.53-32-52.77-1.72-1.8-2.18-3.82-.98-6.04,1.51-2.79,3.92-4.24,7.08-4.1,4.34,.2,7.62,2.58,10.58,5.5,4.78,4.71,7.68,11.22,13.96,14.54,.88,.47,1.48,1.9,1.77,3,3.6,13.92,12.24,25.63,17,39.04,.42,1.17,.69,3.04,2.49,2.61,1.15-.27,1.32-1.76,1.6-2.96,8.24-35.42,19.69-69.57,35.74-102.41,11.04-22.61,25.6-42.23,41.92-60.9,9.83-11.24,21.57-20.57,31.57-31.68,4.47-4.97,10.31-5.2,15.14-1.89,4.34,2.97,4.46,8.73,.26,11.91-16.03,12.17-29.77,26.67-42.85,41.88-7.42,8.63-15.22,16.98-20.52,27.14-14.1,27.02-28.34,53.85-35.38,84.04-4.7,20.12-10.13,40.06-13.52,60.47-1.67,10.05-2.81,20.1-2.48,30.33,.19,6.01-1.59,7.59-6.96,7.57Z"/></svg>